<?xml version="1.0" encoding="utf-8"?>
<!-- Generator: Adobe Illustrator 22.1.0, SVG Export Plug-In . SVG Version: 6.00 Build 0)  -->
<svg version="1.1" id="Layer_1" xmlns="http://www.w3.org/2000/svg" xmlns:xlink="http://www.w3.org/1999/xlink" x="0px" y="0px"
	 viewBox="0 0 80 80" style="enable-background:new 0 0 80 80;" xml:space="preserve">
<g>
	<path d="M9,43.2c-1.6,1.6-4.2,1.6-6,0c-1.6-1.6-1.6-4.3,0-6l34-34c1.6-1.7,4.3-1.7,6,0l34,34c1.6,1.6,1.6,4.3,0,6
		c-1.7,1.6-4.3,1.6-6,0L40,12.1L9,43.2z"/>
	<path d="M59.1,47.6c0-2.3,1.8-4.1,4.1-4.1c2.3,0,4.2,1.7,4.2,4.1V74c0,2.2-1.9,4.1-4.2,4.1H16.8c-2.3,0-4.1-1.9-4.1-4.1V47.6
		c0-2.3,1.8-4.1,4.1-4.1c2.4,0,4.2,1.7,4.2,4.1v22.2h38.1V47.6L59.1,47.6L59.1,47.6z"/>
</g>
</svg>
